<svg xmlns="http://www.w3.org/2000/svg" viewBox="0 0 512 512"><rect width="512" height="512" rx="116" fill="#f4d490"/><path d="M0 362q127-55 255 0t257-4v154H0" fill="#e6bd78"/><ellipse cx="256" cy="399" rx="136" ry="24" fill="#b7986740"/><g fill="#fff6e6" stroke="#e6d7bc" stroke-width="7"><ellipse cx="197" cy="167" rx="43" ry="93" transform="rotate(-13 197 167)"/><ellipse cx="315" cy="167" rx="43" ry="93" transform="rotate(13 315 167)"/></g><g stroke="#e4aaa6" stroke-width="23" stroke-linecap="round"><path d="m188 125 14 66m122-66-14 66"/></g><rect x="129" y="213" width="254" height="175" rx="82" fill="#fff6e6"/><g fill="#594c44"><ellipse cx="218" cy="279" rx="10" ry="13"/><ellipse cx="294" cy="279" rx="10" ry="13"/></g><g fill="#eda99e"><ellipse cx="183" cy="309" rx="19" ry="12"/><ellipse cx="329" cy="309" rx="19" ry="12"/></g><path d="M236 314q20 23 40 0" fill="none" stroke="#594c44" stroke-width="9" stroke-linecap="round"/><path d="m406 98 10 22 24 3-17 17 4 23-21-11-21 11 4-23-17-17 24-3z" fill="#fff6d9"/></svg>
